<svg id="svg2" width="302.36267" height="264.56668" viewBox="0 0 302.36267 264.56668" xmlns="http://www.w3.org/2000/svg"><defs id="defs6"><clipPath clipPathUnits="userSpaceOnUse" id="clipPath18"><path d="M0 198.425H226.772V0H0z" id="path16"/></clipPath></defs><g id="g10" transform="matrix(1.3333333,0,0,-1.3333333,0,264.56667)"><g id="g12"><g id="g14" clip-path="url(#clipPath18)"><g id="g20" transform="translate(25.8791,18.1129)"/><g id="g24" transform="translate(57.1604,18.1129)"/><g id="g28" transform="translate(81.4612,18.1129)"/><g id="g32" transform="translate(98.654,17.648)"/><g id="g36" transform="translate(132.6623,18.1129)"/><g id="g40" transform="translate(152.8518,18.1129)"/><g id="g44" transform="translate(185.0686,19.2974)"/><g id="g48" transform="translate(207.7952,19.2974)"/><g id="g52" transform="translate(116.4719,145.4078)"><path d="M4.907-30.797C4.907-31.792 4.1-32.599 3.105-32.599H-8.716c-23.148.0-41.914 18.645-41.914 41.644V20.777c0 .994.807000000000002 1.802 1.802 1.802h11.819c23.054.0 41.916-18.74 41.916-41.644z" style="fill:#71cbf4;fill-opacity:1;fill-rule:nonzero;stroke:none" id="path54"/></g><g id="g56" transform="translate(115.4739,98.6255)"><path d="M4.399-54.615H-25.222c-1.247.0-1.941-1.408-1.209-2.409C-19.448-66.569-8.32-72.921 4.345-73.407 5.194-73.44 5.905-72.735 5.905-71.888v15.776C5.905-55.285 5.23-54.615 4.399-54.615" style="fill:#0f252f;fill-opacity:1;fill-rule:nonzero;stroke:none" id="path58"/></g><g id="g60" transform="translate(115.4739,119.6964)"><path d="M4.399-43.887h-35.78c-.686.0-1.302-.457999999999998-1.471-1.12C-33.652-48.13-34.102-51.389-34.102-54.759S-33.652-61.389-32.852-64.51C-32.683-65.172-32.067-65.631-31.381-65.631H4.399C5.23-65.631 5.905-64.961 5.905-64.134v18.749C5.905-44.558 5.23-43.887 4.399-43.887" style="fill:#0f252f;fill-opacity:1;fill-rule:nonzero;stroke:none" id="path62"/></g><g id="g64" transform="translate(115.4739,127.0455)"><path d="M4.399-40.146H-25.222c-1.247.0-1.941 1.407-1.209 2.407C-19.448-28.192-8.32-21.84 4.345-21.354 5.194-21.324 5.905-22.026 5.905-22.873V-38.649C5.905-39.476 5.23-40.146 4.399-40.146" style="fill:#0f252f;fill-opacity:1;fill-rule:nonzero;stroke:none" id="path66"/></g><g id="g68" transform="translate(134.7981,143.2623)"><path d="M14.237-31.89c0 2.741 2.25 4.962 5.027 4.962s5.027-2.221 5.027-4.962c0-2.74-2.25-4.962-5.027-4.962S14.237-34.63 14.237-31.89M31.823-32.283c0 11.71-9.643 21.293-21.431 21.293H-3.942C-4.936-10.99-5.742-11.796-5.742-12.792V-27.021c0-11.711 9.642-21.292 21.431-21.292H30.021C31.017-48.313 31.823-47.506 31.823-46.511z" style="fill:#0f252f;fill-opacity:1;fill-rule:nonzero;stroke:none" id="path70"/></g></g></g></g></svg>